<?xml version="1.0" encoding="utf-8"?>
<svg xmlns="http://www.w3.org/2000/svg"
	xmlns:xlink="http://www.w3.org/1999/xlink"
	width="88px" height="55px" viewBox="0 0 88 55">
<path fillRule="evenodd" d="M 86.95 51.35C 84.51 45.96 82.8 40.44 81.67 34.67 81.29 32.75 78.7 32.26 77.64 33.85 76.77 35.14 75.76 36.34 74.89 37.64 87.73 45.95 62.75 28.4 0.43 0.45 43.32 22.3 63.47 37.26 72.19 42.75 71.23 44.19 70.88 43.93 70.35 45.66 70.16 45.95 70.2 46.19 70.25 46.43 68.43 46.66 67.7 49.93 70 50.85 74.75 52.77 79.78 54.27 84.92 55 86.5 54.81 87.47 52.74 86.95 51.35ZM 78.39 40.19C 79.24 43.27 80.09 46.34 81.33 49.47 78.74 48.98 76.2 48.12 73.66 47.25 73.75 47.1 73.85 46.96 74.04 46.67 75.06 44.22 76.65 42.16 78.39 40.19Z" fill="rgb(231,77,117)"/></svg>