<?xml version="1.0" encoding="utf-8"?>
<svg xmlns="http://www.w3.org/2000/svg"
	xmlns:xlink="http://www.w3.org/1999/xlink"
	width="59px" height="66px" viewBox="0 0 59 66">
<path fillRule="evenodd" d="M 57.33 23.95C 55.87 26.83 52.88 30.22 46.85 30.69 45.79 37.05 41.21 42.25 35.16 44.28 35.16 44.28 35.16 54.84 35.16 54.84 35.16 54.84 41.42 54.84 41.42 54.84 42.15 54.84 42.79 55.29 43.02 55.97 43.02 55.97 45.67 63.81 45.67 63.81 45.84 64.32 45.75 64.87 45.44 65.31 45.12 65.74 44.61 66 44.07 66 44.07 66 14.93 66 14.93 66 14.39 66 13.88 65.74 13.56 65.31 13.25 64.87 13.16 64.32 13.33 63.81 13.33 63.81 15.98 55.97 15.98 55.97 16.21 55.29 16.85 54.84 17.58 54.84 17.58 54.84 23.84 54.84 23.84 54.84 23.84 54.84 23.84 44.28 23.84 44.28 17.79 42.25 13.21 37.05 12.15 30.69 6.12 30.22 3.13 26.83 1.67 23.95 0.02 20.7-0 17.47-0 17.33-0 17.33-0 5.58-0 5.58-0 4.66 0.76 3.92 1.69 3.92 1.69 3.92 11.92 3.92 11.92 3.92 11.92 3.92 11.92 1.66 11.92 1.66 11.92 0.74 12.68-0 13.61-0 13.61-0 45.39-0 45.39-0 46.32-0 47.08 0.74 47.08 1.66 47.08 1.66 47.08 3.92 47.08 3.92 47.08 3.92 57.31 3.92 57.31 3.92 58.24 3.92 59 4.66 59 5.58 59 5.58 59 17.33 59 17.33 59 17.47 58.98 20.7 57.33 23.95ZM 11.92 7.25C 11.92 7.25 3.38 7.25 3.38 7.25 3.38 7.25 3.38 17.33 3.38 17.33 3.38 17.35 3.41 20 4.74 22.56 6.18 25.33 8.59 26.93 11.92 27.32 11.92 27.32 11.92 7.25 11.92 7.25ZM 18.8 58.17C 18.8 58.17 17.28 62.67 17.28 62.67 17.28 62.67 41.72 62.67 41.72 62.67 41.72 62.67 40.2 58.17 40.2 58.17 40.2 58.17 18.8 58.17 18.8 58.17ZM 31.78 54.84C 31.78 54.84 31.78 45.06 31.78 45.06 31.04 45.15 30.27 45.21 29.5 45.21 28.73 45.21 27.96 45.15 27.22 45.06 27.22 45.06 27.22 54.84 27.22 54.84 27.22 54.84 31.78 54.84 31.78 54.84 31.78 54.84 31.78 54.84 31.78 54.84ZM 43.7 3.33C 43.7 3.33 15.3 3.33 15.3 3.33 15.3 3.33 15.3 27.88 15.3 27.88 15.3 35.6 21.67 41.88 29.5 41.88 37.33 41.88 43.7 35.6 43.7 27.88 43.7 27.88 43.7 3.33 43.7 3.33ZM 55.62 7.25C 55.62 7.25 47.08 7.25 47.08 7.25 47.08 7.25 47.08 27.32 47.08 27.32 50.41 26.93 52.82 25.33 54.26 22.56 55.59 20 55.62 17.35 55.62 17.33 55.62 17.33 55.62 7.25 55.62 7.25ZM 36.4 22.42C 36.4 22.42 36.54 27.42 36.54 27.42 36.55 27.97 36.29 28.49 35.84 28.81 35.55 29.02 35.2 29.13 34.85 29.13 34.66 29.13 34.47 29.1 34.28 29.03 34.28 29.03 29.5 27.36 29.5 27.36 29.5 27.36 24.72 29.03 24.72 29.03 24.19 29.22 23.61 29.13 23.16 28.81 22.71 28.49 22.45 27.97 22.46 27.42 22.46 27.42 22.6 22.42 22.6 22.42 22.6 22.42 19.51 18.45 19.51 18.45 19.17 18.02 19.07 17.44 19.24 16.92 19.41 16.4 19.84 15.99 20.37 15.84 20.37 15.84 25.24 14.43 25.24 14.43 25.24 14.43 28.11 10.3 28.11 10.3 28.42 9.85 28.94 9.58 29.5 9.58 30.06 9.58 30.58 9.85 30.89 10.3 30.89 10.3 33.76 14.43 33.76 14.43 33.76 14.43 38.63 15.84 38.63 15.84 39.16 15.99 39.59 16.4 39.76 16.92 39.93 17.44 39.83 18.02 39.49 18.45 39.49 18.45 36.4 22.42 36.4 22.42ZM 32.23 17.45C 31.86 17.34 31.53 17.11 31.31 16.8 31.31 16.8 29.5 14.19 29.5 14.19 29.5 14.19 27.68 16.8 27.68 16.8 27.47 17.11 27.14 17.34 26.77 17.45 26.77 17.45 23.69 18.35 23.69 18.35 23.69 18.35 25.65 20.86 25.65 20.86 25.88 21.16 26.01 21.54 26 21.92 26 21.92 25.91 25.08 25.91 25.08 25.91 25.08 28.93 24.02 28.93 24.02 29.12 23.96 29.31 23.93 29.5 23.93 29.69 23.93 29.88 23.96 30.07 24.02 30.07 24.02 33.09 25.08 33.09 25.08 33.09 25.08 33 21.92 33 21.92 32.99 21.54 33.12 21.16 33.35 20.86 33.35 20.86 35.31 18.35 35.31 18.35 35.31 18.35 32.23 17.45 32.23 17.45Z" fill="rgb(255,255,255)"/></svg>