<?xml version="1.0" encoding="utf-8"?>
<svg xmlns="http://www.w3.org/2000/svg"
	xmlns:xlink="http://www.w3.org/1999/xlink"
	width="69px" height="65px" viewBox="0 0 69 65">
<path fillRule="evenodd" d="M 66.97 4.05C 66.97 4.05 62.72 4.05 62.72 4.05 62.72 4.05 62.72 48.45 62.72 48.45 62.72 48.45 66.97 48.45 66.97 48.45 68.09 48.45 69 49.35 69 50.47 69 51.6 68.09 52.5 66.97 52.5 66.97 52.5 2.03 52.5 2.03 52.5 0.91 52.5-0 51.6-0 50.47-0 49.35 0.91 48.45 2.03 48.45 2.03 48.45 6.28 48.45 6.28 48.45 6.28 48.45 6.28 4.05 6.28 4.05 6.28 4.05 2.03 4.05 2.03 4.05 0.91 4.05-0 3.15-0 2.03-0 0.9 0.91-0 2.03-0 2.03-0 66.97-0 66.97-0 68.09-0 69 0.9 69 2.03 69 3.15 68.09 4.05 66.97 4.05ZM 58.68 4.05C 58.68 4.05 10.32 4.05 10.32 4.05 10.32 4.05 10.32 48.45 10.32 48.45 10.32 48.45 58.68 48.45 58.68 48.45 58.68 48.45 58.68 4.05 58.68 4.05ZM 15.67 20.68C 15.67 20.68 29.48 11.65 29.48 11.65 29.99 11.32 30.63 11.23 31.22 11.43 31.8 11.62 32.27 12.07 32.48 12.65 32.48 12.65 34.97 19.3 34.97 19.3 34.97 19.3 48.27 10.68 48.27 10.68 49.21 10.07 50.47 10.34 51.08 11.29 51.69 12.23 51.41 13.49 50.47 14.1 50.47 14.1 35.06 24.09 35.06 24.09 34.54 24.43 33.9 24.51 33.32 24.32 32.74 24.12 32.27 23.67 32.06 23.1 32.06 23.1 29.57 16.45 29.57 16.45 29.57 16.45 17.88 24.09 17.88 24.09 17.54 24.31 17.16 24.42 16.78 24.42 16.11 24.42 15.46 24.09 15.07 23.49 14.46 22.55 14.73 21.29 15.67 20.68ZM 28.2 60.95C 28.2 60.95 32.39 60.95 32.39 60.95 32.32 60.74 32.28 60.52 32.28 60.29 32.28 60.29 32.28 57.98 32.28 57.98 32.28 56.86 33.18 55.94 34.3 55.94 35.42 55.94 36.32 56.86 36.32 57.98 36.32 57.98 36.32 60.29 36.32 60.29 36.32 60.52 36.3 60.74 36.23 60.95 36.23 60.95 40.04 60.95 40.04 60.95 41.16 60.95 42.07 61.85 42.07 62.97 42.07 64.1 41.16 65 40.04 65 40.04 65 28.2 65 28.2 65 27.08 65 26.17 64.1 26.17 62.97 26.17 61.85 27.08 60.95 28.2 60.95Z" fill="rgb(255,255,255)"/></svg>