<?xml version="1.0" encoding="utf-8"?>
<svg xmlns="http://www.w3.org/2000/svg"
	xmlns:xlink="http://www.w3.org/1999/xlink"
	width="88px" height="71px" viewBox="0 0 88 71">
<path fillRule="evenodd" d="M 83.6 11.83C 83.6 11.83 80.67 11.83 80.67 11.83 80.67 11.83 80.67 4.44 80.67 4.44 80.67 1.99 78.69-0 76.27-0 76.27-0 70.4-0 70.4-0 67.97-0 66 1.99 66 4.44 66 4.44 66 16.27 66 16.27 66 16.27 62.55 16.27 62.55 16.27 62.55 16.27 62.22 15.44 62.22 15.44 60.67 11.45 56.92 8.87 52.67 8.87 52.67 8.87 52.53 8.87 52.53 8.87 51.92 7.16 50.31 5.92 48.4 5.92 47.27 5.92 46.25 6.36 45.47 7.07 44.69 6.36 43.66 5.92 42.53 5.92 41.4 5.92 40.38 6.36 39.6 7.07 38.82 6.36 37.8 5.92 36.67 5.92 35.54 5.92 34.51 6.36 33.73 7.07 32.95 6.36 31.93 5.92 30.8 5.92 28.37 5.92 26.4 7.91 26.4 10.35 26.4 10.35 26.4 16.27 26.4 16.27 26.4 16.27 22 16.27 22 16.27 22 16.27 22 4.44 22 4.44 22 1.99 20.03-0 17.6-0 17.6-0 11.73-0 11.73-0 9.31-0 7.33 1.99 7.33 4.44 7.33 4.44 7.33 11.83 7.33 11.83 7.33 11.83 4.4 11.83 4.4 11.83 1.97 11.83 0 13.82 0 16.27 0 16.27 0 31.06 0 31.06 0 33.51 1.97 35.5 4.4 35.5 4.4 35.5 7.33 35.5 7.33 35.5 7.33 35.5 7.33 42.9 7.33 42.9 7.33 45.34 9.31 47.33 11.73 47.33 11.73 47.33 17.6 47.33 17.6 47.33 20.03 47.33 22 45.34 22 42.9 22 42.9 22 31.06 22 31.06 22 31.06 25.33 31.06 25.33 31.06 25.33 31.06 26.47 34.71 26.47 34.71 26.52 34.87 26.6 35.03 26.71 35.17 26.71 35.17 30.62 40.28 30.62 40.28 30.62 40.28 28.11 66.85 28.11 66.85 28.01 67.91 28.36 68.97 29.07 69.76 29.78 70.55 30.8 71 31.85 71 31.85 71 51.74 71 51.74 71 52.8 71 53.81 70.55 54.52 69.75 55.23 68.96 55.58 67.9 55.47 66.83 55.47 66.83 52.91 40.99 52.91 40.99 52.88 40.72 52.99 40.45 53.19 40.28 53.19 40.28 61.24 33.32 61.24 33.32 61.95 32.71 62.44 31.92 62.74 31.06 62.74 31.06 66 31.06 66 31.06 66 31.06 66 42.9 66 42.9 66 45.34 67.97 47.33 70.4 47.33 70.4 47.33 76.27 47.33 76.27 47.33 78.69 47.33 80.67 45.34 80.67 42.9 80.67 42.9 80.67 35.5 80.67 35.5 80.67 35.5 83.6 35.5 83.6 35.5 86.03 35.5 88 33.51 88 31.06 88 31.06 88 16.27 88 16.27 88 13.82 86.03 11.83 83.6 11.83ZM 7.33 32.54C 7.33 32.54 4.4 32.54 4.4 32.54 3.59 32.54 2.93 31.88 2.93 31.06 2.93 31.06 2.93 16.27 2.93 16.27 2.93 15.46 3.59 14.79 4.4 14.79 4.4 14.79 7.33 14.79 7.33 14.79 7.33 14.79 7.33 32.54 7.33 32.54ZM 19.07 17.75C 19.07 17.75 19.07 29.58 19.07 29.58 19.07 29.58 19.07 42.9 19.07 42.9 19.07 43.71 18.41 44.37 17.6 44.37 17.6 44.37 11.73 44.37 11.73 44.37 10.92 44.37 10.27 43.71 10.27 42.9 10.27 42.9 10.27 34.02 10.27 34.02 10.27 34.02 10.27 13.31 10.27 13.31 10.27 13.31 10.27 4.44 10.27 4.44 10.27 3.62 10.92 2.96 11.73 2.96 11.73 2.96 17.6 2.96 17.6 2.96 18.41 2.96 19.07 3.62 19.07 4.44 19.07 4.44 19.07 17.75 19.07 17.75ZM 46.93 10.35C 46.93 9.54 47.59 8.87 48.4 8.87 49.21 8.87 49.87 9.54 49.87 10.35 49.87 10.35 49.87 17.75 49.87 17.75 49.87 17.75 49.87 19.07 49.87 19.07 49.87 19.63 49.59 20.14 49.2 20.44 49.16 20.47 49.12 20.5 49.07 20.52 48.99 20.57 48.91 20.59 48.82 20.62 48.73 20.65 48.63 20.67 48.53 20.68 48.41 20.69 48.3 20.68 48.18 20.66 48.1 20.65 48.01 20.64 47.93 20.61 47.82 20.57 47.71 20.51 47.6 20.44 47.54 20.39 47.47 20.36 47.41 20.31 47.31 20.21 47.23 20.09 47.16 19.97 47.13 19.92 47.09 19.88 47.06 19.82 46.98 19.64 46.93 19.44 46.93 19.23 46.93 19.23 46.93 10.35 46.93 10.35 46.93 10.35 46.93 10.35 46.93 10.35ZM 41.07 10.35C 41.07 9.54 41.72 8.87 42.53 8.87 43.34 8.87 44 9.54 44 10.35 44 10.35 44 19.23 44 19.23 44 20.04 43.34 20.71 42.53 20.71 41.72 20.71 41.07 20.04 41.07 19.23 41.07 19.23 41.07 10.35 41.07 10.35ZM 35.2 10.35C 35.2 9.54 35.86 8.87 36.67 8.87 37.48 8.87 38.13 9.54 38.13 10.35 38.13 10.35 38.13 19.23 38.13 19.23 38.13 20.04 37.48 20.71 36.67 20.71 35.86 20.71 35.2 20.04 35.2 19.23 35.2 19.23 35.2 10.35 35.2 10.35ZM 29.33 17.75C 29.33 17.75 29.33 10.35 29.33 10.35 29.33 9.54 29.99 8.87 30.8 8.87 31.61 8.87 32.27 9.54 32.27 10.35 32.27 10.35 32.27 19.23 32.27 19.23 32.27 19.44 32.22 19.64 32.14 19.83 32.11 19.88 32.07 19.92 32.04 19.98 31.96 20.1 31.89 20.21 31.78 20.31 31.73 20.36 31.66 20.39 31.6 20.44 31.49 20.51 31.38 20.57 31.26 20.61 31.19 20.64 31.1 20.65 31.02 20.66 30.91 20.68 30.79 20.69 30.67 20.68 30.57 20.67 30.47 20.65 30.38 20.62 30.29 20.59 30.21 20.57 30.13 20.52 30.08 20.5 30.04 20.47 30 20.44 29.61 20.14 29.33 19.63 29.33 19.07 29.33 19.07 29.33 17.75 29.33 17.75ZM 22 28.1C 22 28.1 22 19.23 22 19.23 22 19.23 26.4 19.23 26.4 19.23 26.4 20.85 27.28 22.26 28.57 23.03 28.65 23.08 28.73 23.12 28.82 23.17 28.95 23.23 29.08 23.3 29.22 23.36 29.37 23.42 29.53 23.46 29.69 23.5 29.79 23.53 29.88 23.56 29.98 23.58 30.02 23.59 30.04 23.6 30.07 23.61 30.18 23.62 30.28 23.61 30.38 23.62 30.52 23.64 30.66 23.67 30.8 23.67 30.84 23.67 30.88 23.65 30.92 23.65 31.06 23.65 31.19 23.63 31.32 23.61 31.5 23.59 31.67 23.57 31.84 23.53 31.96 23.5 32.08 23.45 32.21 23.41 32.37 23.36 32.53 23.29 32.69 23.22 32.81 23.16 32.92 23.1 33.04 23.03 33.18 22.94 33.32 22.85 33.46 22.74 33.52 22.69 33.59 22.66 33.65 22.61 33.68 22.59 33.71 22.56 33.73 22.54 33.82 22.61 33.92 22.67 34.01 22.74 34.1 22.81 34.19 22.89 34.29 22.95 34.42 23.04 34.57 23.11 34.72 23.19 34.82 23.24 34.91 23.29 35.01 23.34 35.18 23.4 35.36 23.45 35.54 23.5 35.63 23.52 35.72 23.56 35.81 23.58 36.09 23.63 36.37 23.67 36.67 23.67 36.96 23.67 37.24 23.63 37.52 23.58 37.62 23.56 37.7 23.52 37.8 23.5 37.97 23.45 38.15 23.4 38.32 23.34 38.43 23.29 38.52 23.24 38.62 23.19 38.77 23.11 38.91 23.04 39.05 22.95 39.15 22.89 39.23 22.81 39.33 22.74 39.42 22.67 39.51 22.61 39.6 22.53 39.69 22.61 39.78 22.67 39.87 22.74 39.97 22.81 40.05 22.89 40.15 22.95 40.29 23.04 40.44 23.11 40.58 23.19 40.68 23.24 40.78 23.29 40.88 23.34 41.05 23.41 41.23 23.45 41.41 23.5 41.5 23.53 41.59 23.56 41.68 23.58 41.96 23.63 42.24 23.67 42.53 23.67 42.83 23.67 43.11 23.63 43.39 23.58 43.48 23.56 43.57 23.53 43.66 23.5 43.84 23.45 44.02 23.4 44.19 23.34 44.29 23.29 44.38 23.24 44.48 23.19 44.63 23.11 44.78 23.04 44.91 22.95 45.01 22.89 45.1 22.81 45.19 22.74 45.28 22.67 45.38 22.61 45.47 22.53 45.49 22.56 45.52 22.59 45.55 22.61 45.61 22.66 45.68 22.69 45.74 22.74 45.88 22.84 46.02 22.94 46.17 23.03 46.28 23.1 46.39 23.16 46.51 23.22 46.67 23.3 46.83 23.36 47.01 23.42 47.12 23.46 47.24 23.5 47.35 23.53 47.53 23.57 47.72 23.59 47.9 23.62 48.02 23.63 48.14 23.65 48.27 23.65 48.31 23.65 48.35 23.67 48.4 23.67 48.55 23.67 48.69 23.64 48.83 23.62 48.93 23.61 49.03 23.62 49.13 23.61 49.16 23.6 49.19 23.59 49.23 23.58 49.29 23.57 49.36 23.55 49.42 23.53 49.61 23.49 49.79 23.43 49.97 23.36 50.06 23.32 50.16 23.28 50.25 23.24 50.35 23.19 50.45 23.13 50.55 23.08 51.62 22.46 52.42 21.43 52.69 20.18 52.76 20.35 52.8 20.52 52.8 20.71 52.8 20.71 52.8 26.01 52.8 26.01 52.8 26.01 50.73 28.1 50.73 28.1 50.73 28.1 22 28.1 22 28.1ZM 60.13 29.32C 60.13 29.99 59.84 30.63 59.33 31.07 59.33 31.07 51.29 38.03 51.29 38.03 50.35 38.84 49.87 40.05 49.99 41.28 49.99 41.28 52.56 67.13 52.56 67.13 52.59 67.45 52.44 67.67 52.35 67.77 52.25 67.87 52.05 68.04 51.73 68.04 51.73 68.04 31.85 68.04 31.85 68.04 31.54 68.04 31.33 67.87 31.24 67.77 31.15 67.67 31 67.45 31.03 67.13 31.03 67.13 33.6 39.97 33.6 39.97 33.63 39.6 33.52 39.23 33.3 38.93 33.3 38.93 29.19 33.57 29.19 33.57 29.19 33.57 28.4 31.06 28.4 31.06 28.4 31.06 50.73 31.06 50.73 31.06 51.5 31.06 52.25 30.75 52.8 30.2 52.8 30.2 54.87 28.1 54.87 28.1 55.43 27.54 55.73 26.8 55.73 26.01 55.73 26.01 55.73 20.71 55.73 20.71 55.73 18.78 54.5 17.15 52.8 16.54 52.8 16.54 52.8 11.83 52.8 11.83 55.78 11.89 58.4 13.71 59.49 16.52 59.49 16.52 60.05 17.92 60.05 17.92 60.1 18.04 60.13 18.17 60.13 18.29 60.13 18.29 60.13 29.32 60.13 29.32ZM 66 28.1C 66 28.1 63.07 28.1 63.07 28.1 63.07 28.1 63.07 19.23 63.07 19.23 63.07 19.23 66 19.23 66 19.23 66 19.23 66 28.1 66 28.1ZM 77.73 13.31C 77.73 13.31 77.73 34.02 77.73 34.02 77.73 34.02 77.73 42.9 77.73 42.9 77.73 43.71 77.08 44.37 76.27 44.37 76.27 44.37 70.4 44.37 70.4 44.37 69.59 44.37 68.93 43.71 68.93 42.9 68.93 42.9 68.93 29.58 68.93 29.58 68.93 29.58 68.93 17.75 68.93 17.75 68.93 17.75 68.93 4.44 68.93 4.44 68.93 3.62 69.59 2.96 70.4 2.96 70.4 2.96 76.27 2.96 76.27 2.96 77.08 2.96 77.73 3.62 77.73 4.44 77.73 4.44 77.73 13.31 77.73 13.31ZM 85.07 31.06C 85.07 31.88 84.41 32.54 83.6 32.54 83.6 32.54 80.67 32.54 80.67 32.54 80.67 32.54 80.67 14.79 80.67 14.79 80.67 14.79 83.6 14.79 83.6 14.79 84.41 14.79 85.07 15.46 85.07 16.27 85.07 16.27 85.07 31.06 85.07 31.06Z" fill="rgb(255,255,255)"/></svg>