<?xml version="1.0" encoding="utf-8"?>
<svg xmlns="http://www.w3.org/2000/svg"
	xmlns:xlink="http://www.w3.org/1999/xlink"
	width="50px" height="74px" viewBox="0 0 50 74">
<path fillRule="evenodd" d="M 39.74 51.75C 34.92 60.41 30.2 67.62 30 67.92 30 67.92 26.56 73.15 26.56 73.15 26.22 73.68 25.63 74 25 74 24.37 74 23.78 73.68 23.44 73.15 23.44 73.15 20 67.92 20 67.92 19.8 67.61 15.04 60.35 10.26 51.75 3.26 39.14 0 30.68 0 25.11 0 11.27 11.22-0 25-0 38.78-0 50 11.27 50 25.11 50 30.68 46.74 39.14 39.74 51.75ZM 25 3.76C 13.28 3.76 3.75 13.34 3.75 25.11 3.75 29.88 7.04 38.22 13.53 49.91 18.25 58.39 22.93 65.55 23.13 65.85 23.13 65.85 25 68.7 25 68.7 25 68.7 26.87 65.85 26.87 65.85 27.07 65.55 31.72 58.46 36.47 49.91 42.96 38.22 46.25 29.88 46.25 25.11 46.25 13.34 36.72 3.76 25 3.76ZM 25 38.88C 17.36 38.88 11.14 32.63 11.14 24.96 11.14 17.28 17.36 11.03 25 11.03 32.64 11.03 38.86 17.28 38.86 24.96 38.86 32.63 32.64 38.88 25 38.88ZM 25 14.8C 19.42 14.8 14.89 19.35 14.89 24.96 14.89 30.56 19.42 35.12 25 35.12 30.58 35.12 35.11 30.56 35.11 24.96 35.11 19.35 30.58 14.8 25 14.8Z" fill="rgb(255,255,255)"/></svg>