<?xml version="1.0" encoding="utf-8"?>
<svg xmlns="http://www.w3.org/2000/svg"
	xmlns:xlink="http://www.w3.org/1999/xlink"
	width="66px" height="70px" viewBox="0 0 66 70">
<path fillRule="evenodd" d="M 64.88 21.11C 64.88 21.11 56.4 21.11 56.4 21.11 56.4 21.11 60.08 24.77 60.08 24.77 60.52 25.21 60.52 25.91 60.08 26.34 59.86 26.56 59.58 26.67 59.29 26.67 59 26.67 58.72 26.56 58.5 26.34 58.5 26.34 52.9 20.79 52.9 20.79 52.47 20.35 52.47 19.65 52.9 19.22 52.9 19.22 58.5 13.66 58.5 13.66 58.93 13.23 59.64 13.23 60.08 13.66 60.52 14.1 60.52 14.8 60.08 15.23 60.08 15.23 56.4 18.89 56.4 18.89 56.4 18.89 64.88 18.89 64.88 18.89 65.5 18.89 66 19.39 66 20 66 20.62 65.5 21.11 64.88 21.11ZM 49.22 20C 49.22 22.7 50.81 25.06 52.82 28.04 54.54 30.59 56.61 33.66 58.15 37.79 58.16 37.83 58.19 37.85 58.21 37.89 58.68 39.17 59.08 40.51 59.4 41.86 59.41 41.9 59.4 41.93 59.4 41.97 60.02 44.62 60.41 47.63 60.41 51.11 60.41 57.77 58.62 64.13 55.23 69.48 55.03 69.8 54.67 70 54.29 70 54.29 70 35.8 70 35.8 70 35.18 70 34.68 69.5 34.68 68.89 34.68 68.89 34.68 66.67 34.68 66.67 34.68 66.67 32.44 66.67 32.44 66.67 32.44 66.67 32.44 68.89 32.44 68.89 32.44 69.5 31.94 70 31.32 70 31.32 70 12.83 70 12.83 70 12.45 70 12.09 69.8 11.88 69.48 8.5 64.12 6.71 57.77 6.71 51.11 6.71 47.62 7.06 44.6 7.62 41.95 7.62 41.92 7.62 41.89 7.62 41.86 7.86 40.74 8.15 39.63 8.48 38.56 8.49 38.54 8.51 38.52 8.51 38.5 9.92 34.03 11.89 30.77 13.53 28.08 15.34 25.09 16.78 22.73 16.78 20 16.78 16.41 15.76 14.64 14.69 12.78 13.52 10.74 12.3 8.63 12.3 4.45 12.3 4.19 12.3 3.93 12.31 3.67 12.31 3.28 12.52 2.92 12.86 2.73 13.2 2.53 13.61 2.52 13.96 2.71 16.09 3.85 18.61 4.45 21.25 4.45 25.44 4.45 29.31 2.92 31.6 0.35 32.03-0.12 32.85-0.12 33.28 0.35 35.57 2.92 39.44 4.45 43.63 4.45 46.71 4.45 49.66 3.61 51.94 2.1 52.28 1.87 52.72 1.85 53.08 2.04 53.44 2.22 53.67 2.6 53.68 3 53.69 3.48 53.69 3.96 53.69 4.45 53.69 8.63 52.48 10.74 51.31 12.78 50.23 14.64 49.22 16.41 49.22 20ZM 36.92 67.78C 36.92 67.78 53.66 67.78 53.66 67.78 56.61 62.89 58.17 57.14 58.17 51.11 58.17 48.27 57.91 45.76 57.47 43.53 51.51 45.59 45.07 51.65 40.4 59.68 39.21 61.73 38.17 63.85 37.31 65.97 37.23 66.17 37.09 66.34 36.92 66.46 36.92 66.46 36.92 67.78 36.92 67.78ZM 8.95 51.11C 8.95 57.14 10.51 62.89 13.46 67.78 13.46 67.78 30.2 67.78 30.2 67.78 30.2 67.78 30.2 66.45 30.2 66.45 30.04 66.33 29.9 66.17 29.82 65.97 28.96 63.85 27.93 61.73 26.73 59.68 22.04 51.6 15.56 45.53 9.58 43.51 9.19 45.74 8.95 48.25 8.95 51.11ZM 10.28 40.37C 10.24 40.53 10.2 40.69 10.16 40.84 10.12 41 10.09 41.16 10.05 41.32 16.61 43.44 23.65 49.94 28.67 58.57 29.79 60.49 30.77 62.46 31.61 64.44 31.61 64.44 35.52 64.44 35.52 64.44 36.36 62.46 37.35 60.49 38.46 58.57 43.44 50.01 50.43 43.53 56.96 41.36 56.92 41.24 56.89 41.12 56.86 41 56.77 40.68 56.68 40.37 56.58 40.05 56.54 39.93 56.5 39.81 56.46 39.69 49.38 42.08 41.11 43.33 32.44 43.33 24.58 43.33 16.95 42.28 10.31 40.29 10.3 40.32 10.29 40.35 10.28 40.37ZM 43.63 6.67C 39.27 6.67 35.19 5.19 32.44 2.67 29.69 5.19 25.61 6.67 21.25 6.67 18.9 6.67 16.62 6.25 14.57 5.43 14.74 8.38 15.66 9.98 16.63 11.67 17.8 13.71 19.02 15.82 19.02 20 19.02 23.35 17.36 26.08 15.44 29.23 13.94 31.7 12.26 34.49 10.98 38.15 17.41 40.08 24.8 41.11 32.44 41.11 40.85 41.11 48.85 39.89 55.68 37.58 54.3 34.22 52.54 31.6 50.96 29.27 48.83 26.11 46.98 23.38 46.98 20 46.98 15.82 48.2 13.71 49.37 11.67 50.39 9.89 51.36 8.2 51.45 4.93 49.13 6.06 46.42 6.67 43.63 6.67ZM 13.1 20.79C 13.1 20.79 7.5 26.34 7.5 26.34 7.28 26.56 7 26.67 6.71 26.67 6.42 26.67 6.14 26.56 5.92 26.34 5.48 25.91 5.48 25.21 5.92 24.77 5.92 24.77 9.6 21.11 9.6 21.11 9.6 21.11 1.12 21.11 1.12 21.11 0.5 21.11-0 20.62-0 20-0 19.39 0.5 18.89 1.12 18.89 1.12 18.89 9.6 18.89 9.6 18.89 9.6 18.89 5.92 15.23 5.92 15.23 5.48 14.8 5.48 14.1 5.92 13.66 6.36 13.23 7.07 13.23 7.5 13.66 7.5 13.66 13.1 19.22 13.1 19.22 13.53 19.65 13.53 20.35 13.1 20.79Z" fill="rgb(255,255,255)"/></svg>