<?xml version="1.0" encoding="utf-8"?>
<svg xmlns="http://www.w3.org/2000/svg"
	xmlns:xlink="http://www.w3.org/1999/xlink"
	width="70px" height="67px" viewBox="0 0 70 67">
<path fillRule="evenodd" d="M 68.97 22.97C 68.97 22.97 67.81 22.97 67.81 22.97 67.81 22.97 67.81 24.14 67.81 24.14 67.81 24.19 67.8 24.24 67.8 24.28 67.8 24.33 67.81 24.38 67.81 24.42 67.81 24.42 67.81 64.94 67.81 64.94 67.81 64.94 68.97 64.94 68.97 64.94 69.54 64.94 70 65.4 70 65.97 70 66.54 69.54 67 68.97 67 68.97 67 1.03 67 1.03 67 0.46 67-0 66.54-0 65.97-0 65.4 0.46 64.94 1.03 64.94 1.03 64.94 2.19 64.94 2.19 64.94 2.19 64.94 2.19 59.37 2.19 59.37 2.19 59.37 2.19 59.37 2.19 59.37 2.19 59.37 2.19 22.97 2.19 22.97 2.19 22.97 1.03 22.97 1.03 22.97 0.62 22.97 0.25 22.73 0.09 22.36-0.08 21.98-0.01 21.55 0.27 21.25 0.27 21.25 12.06 8.33 12.06 8.33 12.06 8.33 12.06 4.26 12.06 4.26 12.06 4.26 11.98 4.26 11.98 4.26 11.42 4.26 10.96 3.8 10.96 3.23 10.96 2.66 11.42 2.2 11.98 2.2 11.98 2.2 18.56 2.2 18.56 2.2 19.13 2.2 19.59 2.66 19.59 3.23 19.59 3.8 19.13 4.26 18.56 4.26 18.56 4.26 18.49 4.26 18.49 4.26 18.49 4.26 18.49 7.7 18.49 7.7 18.49 7.7 23.02 7.7 23.02 7.7 23.02 7.7 23.02 6.53 23.02 6.53 23.02 6.14 23.23 5.78 23.58 5.61 23.58 5.61 34.54 0.11 34.54 0.11 34.83-0.04 35.17-0.04 35.46 0.11 35.46 0.11 46.42 5.61 46.42 5.61 46.77 5.78 46.98 6.14 46.98 6.53 46.98 6.53 46.98 7.7 46.98 7.7 46.98 7.7 51.51 7.7 51.51 7.7 51.51 7.7 51.51 4.26 51.51 4.26 51.51 4.26 51.44 4.26 51.44 4.26 50.87 4.26 50.41 3.8 50.41 3.23 50.41 2.66 50.87 2.2 51.44 2.2 51.44 2.2 58.02 2.2 58.02 2.2 58.58 2.2 59.04 2.66 59.04 3.23 59.04 3.8 58.58 4.26 58.02 4.26 58.02 4.26 57.94 4.26 57.94 4.26 57.94 4.26 57.94 8.33 57.94 8.33 57.94 8.33 69.73 21.25 69.73 21.25 70.01 21.55 70.08 21.98 69.91 22.36 69.75 22.73 69.38 22.97 68.97 22.97ZM 27.26 64.94C 27.26 64.94 42.74 64.94 42.74 64.94 42.74 64.94 42.74 62.6 42.74 62.6 42.74 62.6 27.26 62.6 27.26 62.6 27.26 62.6 27.26 64.94 27.26 64.94ZM 39.45 60.54C 39.45 60.54 39.45 47.19 39.45 47.19 39.45 47.19 30.55 47.19 30.55 47.19 30.55 47.19 30.55 60.54 30.55 60.54 30.55 60.54 39.45 60.54 39.45 60.54ZM 16.44 4.26C 16.44 4.26 14.11 4.26 14.11 4.26 14.11 4.26 14.11 7.7 14.11 7.7 14.11 7.7 16.44 7.7 16.44 7.7 16.44 7.7 16.44 4.26 16.44 4.26ZM 23.01 9.76C 23.01 9.76 13.53 9.76 13.53 9.76 13.53 9.76 3.36 20.91 3.36 20.91 3.36 20.91 23.01 20.91 23.01 20.91 23.01 20.91 23.01 9.76 23.01 9.76ZM 45.96 22.97C 45.39 22.97 44.93 22.51 44.93 21.94 44.93 21.94 44.93 7.17 44.93 7.17 44.93 7.17 35 2.18 35 2.18 35 2.18 25.07 7.17 25.07 7.17 25.07 7.17 25.07 21.94 25.07 21.94 25.07 22.51 24.61 22.97 24.04 22.97 24.04 22.97 4.24 22.97 4.24 22.97 4.24 22.97 4.24 58.27 4.24 58.27 4.24 58.27 4.24 58.27 4.24 58.27 4.24 58.27 4.24 64.94 4.24 64.94 4.24 64.94 25.21 64.94 25.21 64.94 25.21 64.94 25.21 61.57 25.21 61.57 25.21 61 25.67 60.54 26.23 60.54 26.23 60.54 28.49 60.54 28.49 60.54 28.49 60.54 28.49 46.16 28.49 46.16 28.49 45.59 28.95 45.13 29.52 45.13 29.52 45.13 40.48 45.13 40.48 45.13 41.05 45.13 41.51 45.59 41.51 46.16 41.51 46.16 41.51 60.54 41.51 60.54 41.51 60.54 43.77 60.54 43.77 60.54 44.33 60.54 44.79 61 44.79 61.57 44.79 61.57 44.79 64.94 44.79 64.94 44.79 64.94 65.76 64.94 65.76 64.94 65.76 64.94 65.76 24.42 65.76 24.42 65.76 24.38 65.76 24.33 65.77 24.28 65.76 24.24 65.76 24.19 65.76 24.14 65.76 24.14 65.76 22.97 65.76 22.97 65.76 22.97 45.96 22.97 45.96 22.97ZM 55.89 4.26C 55.89 4.26 53.56 4.26 53.56 4.26 53.56 4.26 53.56 7.7 53.56 7.7 53.56 7.7 55.89 7.7 55.89 7.7 55.89 7.7 55.89 4.26 55.89 4.26ZM 56.47 9.76C 56.47 9.76 46.98 9.76 46.98 9.76 46.98 9.76 46.98 9.76 46.98 9.76 46.98 9.76 46.98 20.91 46.98 20.91 46.98 20.91 66.64 20.91 66.64 20.91 66.64 20.91 56.47 9.76 56.47 9.76ZM 62.4 58.19C 62.4 58.19 44.86 58.19 44.86 58.19 44.3 58.19 43.84 57.73 43.84 57.16 43.84 56.6 44.3 56.13 44.86 56.13 44.86 56.13 44.93 56.13 44.93 56.13 44.93 56.13 44.93 46.16 44.93 46.16 44.93 45.59 45.39 45.13 45.96 45.13 45.96 45.13 61.3 45.13 61.3 45.13 61.87 45.13 62.33 45.59 62.33 46.16 62.33 46.16 62.33 56.13 62.33 56.13 62.33 56.13 62.4 56.13 62.4 56.13 62.97 56.13 63.42 56.6 63.42 57.16 63.42 57.73 62.97 58.19 62.4 58.19ZM 52.61 47.19C 52.61 47.19 46.98 47.19 46.98 47.19 46.98 47.19 46.98 56.13 46.98 56.13 46.98 56.13 52.61 56.13 52.61 56.13 52.61 56.13 52.61 47.19 52.61 47.19ZM 60.28 47.19C 60.28 47.19 54.66 47.19 54.66 47.19 54.66 47.19 54.66 56.13 54.66 56.13 54.66 56.13 60.28 56.13 60.28 56.13 60.28 56.13 60.28 47.19 60.28 47.19ZM 61.3 40.58C 61.3 40.58 45.96 40.58 45.96 40.58 45.39 40.58 44.93 40.12 44.93 39.55 44.93 39.55 44.93 28.55 44.93 28.55 44.93 27.98 45.39 27.52 45.96 27.52 45.96 27.52 61.3 27.52 61.3 27.52 61.87 27.52 62.33 27.98 62.33 28.55 62.33 28.55 62.33 39.55 62.33 39.55 62.33 40.12 61.87 40.58 61.3 40.58ZM 52.61 29.58C 52.61 29.58 46.98 29.58 46.98 29.58 46.98 29.58 46.98 38.52 46.98 38.52 46.98 38.52 52.61 38.52 52.61 38.52 52.61 38.52 52.61 29.58 52.61 29.58ZM 60.28 29.58C 60.28 29.58 54.66 29.58 54.66 29.58 54.66 29.58 54.66 38.52 54.66 38.52 54.66 38.52 60.28 38.52 60.28 38.52 60.28 38.52 60.28 29.58 60.28 29.58ZM 40.48 40.58C 40.48 40.58 29.52 40.58 29.52 40.58 28.95 40.58 28.49 40.12 28.49 39.55 28.49 39.55 28.49 28.55 28.49 28.55 28.49 27.98 28.95 27.52 29.52 27.52 29.52 27.52 40.48 27.52 40.48 27.52 41.05 27.52 41.51 27.98 41.51 28.55 41.51 28.55 41.51 39.55 41.51 39.55 41.51 40.12 41.05 40.58 40.48 40.58ZM 33.97 29.58C 33.97 29.58 30.55 29.58 30.55 29.58 30.55 29.58 30.55 38.52 30.55 38.52 30.55 38.52 33.97 38.52 33.97 38.52 33.97 38.52 33.97 29.58 33.97 29.58ZM 39.45 29.58C 39.45 29.58 36.03 29.58 36.03 29.58 36.03 29.58 36.03 38.52 36.03 38.52 36.03 38.52 39.45 38.52 39.45 38.52 39.45 38.52 39.45 29.58 39.45 29.58ZM 40.48 22.97C 40.48 22.97 29.52 22.97 29.52 22.97 28.95 22.97 28.49 22.51 28.49 21.94 28.49 21.94 28.49 10.93 28.49 10.93 28.49 10.36 28.95 9.9 29.52 9.9 29.52 9.9 40.48 9.9 40.48 9.9 41.05 9.9 41.51 10.36 41.51 10.93 41.51 10.93 41.51 21.94 41.51 21.94 41.51 22.51 41.05 22.97 40.48 22.97ZM 33.97 11.96C 33.97 11.96 30.55 11.96 30.55 11.96 30.55 11.96 30.55 20.91 30.55 20.91 30.55 20.91 33.97 20.91 33.97 20.91 33.97 20.91 33.97 11.96 33.97 11.96ZM 39.45 11.96C 39.45 11.96 36.03 11.96 36.03 11.96 36.03 11.96 36.03 20.91 36.03 20.91 36.03 20.91 39.45 20.91 39.45 20.91 39.45 20.91 39.45 11.96 39.45 11.96ZM 25.14 58.19C 25.14 58.19 7.6 58.19 7.6 58.19 7.03 58.19 6.58 57.73 6.58 57.16 6.58 56.6 7.03 56.13 7.6 56.13 7.6 56.13 7.67 56.13 7.67 56.13 7.67 56.13 7.67 46.16 7.67 46.16 7.67 45.59 8.13 45.13 8.7 45.13 8.7 45.13 24.04 45.13 24.04 45.13 24.61 45.13 25.07 45.59 25.07 46.16 25.07 46.16 25.07 56.13 25.07 56.13 25.07 56.13 25.14 56.13 25.14 56.13 25.7 56.13 26.16 56.6 26.16 57.16 26.16 57.73 25.7 58.19 25.14 58.19ZM 15.34 47.19C 15.34 47.19 9.72 47.19 9.72 47.19 9.72 47.19 9.72 56.13 9.72 56.13 9.72 56.13 15.34 56.13 15.34 56.13 15.34 56.13 15.34 47.19 15.34 47.19ZM 23.01 47.19C 23.01 47.19 17.39 47.19 17.39 47.19 17.39 47.19 17.39 56.13 17.39 56.13 17.39 56.13 23.01 56.13 23.01 56.13 23.01 56.13 23.01 47.19 23.01 47.19ZM 24.04 40.58C 24.04 40.58 8.7 40.58 8.7 40.58 8.13 40.58 7.67 40.12 7.67 39.55 7.67 39.55 7.67 28.55 7.67 28.55 7.67 27.98 8.13 27.52 8.7 27.52 8.7 27.52 24.04 27.52 24.04 27.52 24.61 27.52 25.07 27.98 25.07 28.55 25.07 28.55 25.07 39.55 25.07 39.55 25.07 40.12 24.61 40.58 24.04 40.58ZM 15.34 29.58C 15.34 29.58 9.72 29.58 9.72 29.58 9.72 29.58 9.72 38.52 9.72 38.52 9.72 38.52 15.34 38.52 15.34 38.52 15.34 38.52 15.34 29.58 15.34 29.58ZM 23.01 29.58C 23.01 29.58 17.39 29.58 17.39 29.58 17.39 29.58 17.39 38.52 17.39 38.52 17.39 38.52 23.01 38.52 23.01 38.52 23.01 38.52 23.01 29.58 23.01 29.58ZM 33.9 49.53C 33.9 49.53 36.1 49.53 36.1 49.53 36.66 49.53 37.12 49.99 37.12 50.56 37.12 51.13 36.66 51.59 36.1 51.59 36.1 51.59 33.9 51.59 33.9 51.59 33.34 51.59 32.88 51.13 32.88 50.56 32.88 49.99 33.34 49.53 33.9 49.53Z" fill="rgb(231,77,117)"/></svg>