<?xml version="1.0" encoding="utf-8"?>
<svg xmlns="http://www.w3.org/2000/svg"
	xmlns:xlink="http://www.w3.org/1999/xlink"
	width="65px" height="57px" viewBox="0 0 65 57">
<path fillRule="evenodd" d="M 63.74 9.99C 63.74 9.99 50 9.99 50 9.99 52.09 5.17 54.72 2.14 54.75 2.11 55.21 1.6 55.17 0.8 54.67 0.34 54.17-0.13 53.39-0.09 52.93 0.42 52.8 0.57 49.62 4.17 47.32 9.99 47.32 9.99 23.81 9.99 23.81 9.99 23.13 9.99 22.58 10.55 22.58 11.24 22.58 11.24 22.58 27.34 22.58 27.34 22.58 28.04 23.13 28.6 23.81 28.6 23.81 28.6 45.87 28.6 45.87 28.6 46.68 31.94 48.06 35.22 50.04 38.36 50.48 39.05 50.99 39.88 51.52 40.77 45.54 43.23 38.82 44.56 31.98 44.56 31.98 44.56 31.98 44.56 31.98 44.56 24.88 44.56 17.95 43.13 11.81 40.5 12.28 39.71 12.73 38.98 13.12 38.36 25.79 18.24 10.38 0.59 10.22 0.42 9.77-0.09 8.99-0.13 8.49 0.33 7.99 0.8 7.95 1.6 8.41 2.11 8.99 2.77 22.68 18.53 11.05 37 8.67 40.78 4.24 47.82 4.98 55.83 5.04 56.49 5.57 56.97 6.2 56.97 6.24 56.97 6.28 56.97 6.32 56.96 7 56.9 7.49 56.28 7.43 55.59 6.98 50.78 8.71 46.26 10.57 42.72 17.07 45.56 24.44 47.07 31.97 47.07 31.97 47.07 31.98 47.07 31.98 47.07 39.25 47.07 46.4 45.65 52.73 42.99 54.53 46.48 56.17 50.9 55.73 55.59 55.67 56.28 56.16 56.9 56.83 56.96 56.88 56.97 56.91 56.97 56.95 56.97 57.58 56.97 58.12 56.48 58.17 55.83 58.92 47.82 54.49 40.78 52.11 37 50.39 34.28 49.17 31.46 48.4 28.6 48.4 28.6 63.74 28.6 63.74 28.6 64.42 28.6 64.97 28.03 64.97 27.34 64.97 27.34 64.97 11.24 64.97 11.24 64.97 10.55 64.42 9.99 63.74 9.99ZM 62.51 26.09C 62.51 26.09 59.95 26.09 59.95 26.09 59.95 26.09 59.95 20.95 59.95 20.95 59.95 20.26 59.4 19.69 58.72 19.69 58.04 19.69 57.49 20.26 57.49 20.95 57.49 20.95 57.49 26.09 57.49 26.09 57.49 26.09 54.06 26.09 54.06 26.09 54.06 26.09 54.06 20.95 54.06 20.95 54.06 20.26 53.51 19.69 52.83 19.69 52.15 19.69 51.6 20.26 51.6 20.95 51.6 20.95 51.6 26.09 51.6 26.09 51.6 26.09 48.17 26.09 48.17 26.09 48.17 26.09 48.17 20.95 48.17 20.95 48.17 20.26 47.62 19.69 46.94 19.69 46.26 19.69 45.71 20.26 45.71 20.95 45.71 20.95 45.71 26.09 45.71 26.09 45.71 26.09 42.28 26.09 42.28 26.09 42.28 26.09 42.28 20.95 42.28 20.95 42.28 20.26 41.73 19.69 41.05 19.69 40.37 19.69 39.82 20.26 39.82 20.95 39.82 20.95 39.82 26.09 39.82 26.09 39.82 26.09 36.39 26.09 36.39 26.09 36.39 26.09 36.39 20.95 36.39 20.95 36.39 20.26 35.84 19.69 35.16 19.69 34.49 19.69 33.93 20.26 33.93 20.95 33.93 20.95 33.93 26.09 33.93 26.09 33.93 26.09 30.5 26.09 30.5 26.09 30.5 26.09 30.5 20.95 30.5 20.95 30.5 20.26 29.95 19.69 29.28 19.69 28.6 19.69 28.05 20.26 28.05 20.95 28.05 20.95 28.05 26.09 28.05 26.09 28.05 26.09 25.04 26.09 25.04 26.09 25.04 26.09 25.04 12.5 25.04 12.5 25.04 12.5 62.51 12.5 62.51 12.5 62.51 12.5 62.51 26.09 62.51 26.09 62.51 26.09 62.51 26.09 62.51 26.09ZM 31.58 39.1C 30.15 39.1 28.98 37.91 28.98 36.44 28.98 34.98 30.15 33.79 31.58 33.79 33.01 33.79 34.17 34.98 34.17 36.44 34.17 37.91 33.01 39.1 31.58 39.1ZM 4.14 22.68C 4.14 22.68 4.14 19.99 4.14 19.99 4.14 19.99-0.03 19.99-0.03 19.99-0.03 19.99-0.03 13.32-0.03 13.32-0.03 13.32 4.14 13.32 4.14 13.32 4.14 13.32 4.14 10.64 4.14 10.64 4.14 10.64 10.03 16.66 10.03 16.66 10.03 16.66 4.14 22.68 4.14 22.68Z" fill="rgb(231,77,117)"/></svg>