<?xml version="1.0" encoding="utf-8"?>
<svg xmlns="http://www.w3.org/2000/svg"
	xmlns:xlink="http://www.w3.org/1999/xlink"
	width="69px" height="67px" viewBox="0 0 69 67">
<path fillRule="evenodd" d="M 67.84 19.62C 67.84 19.62 57.61 29.91 57.61 29.91 56.06 31.47 53.44 31.47 51.9 29.91 51.9 29.91 46.42 24.41 46.42 24.41 46.42 24.41 38.57 32.3 38.57 32.3 38.57 32.3 48.45 42.23 48.45 42.23 48.68 42.47 48.8 42.95 48.8 43.31 48.8 43.31 45.11 63.29 45.11 63.29 44.76 64.73 43.81 65.92 42.62 66.52 41.9 66.88 41.19 67 40.47 67 39.76 67 39.16 66.88 38.45 66.52 36.43 65.56 35.24 63.29 35.83 60.9 35.83 60.9 37.97 47.02 37.97 47.02 37.97 47.02 30.84 39.48 30.84 39.48 30.84 39.48 22.27 48.69 22.27 48.69 22.03 48.93 21.79 49.05 21.44 49.05 21.44 49.05 4.78 49.05 4.78 49.05 3.47 49.05 2.28 48.45 1.33 47.62 0.38 46.66-0.1 45.34 0.02 44.03 0.14 41.52 2.28 39.48 5.02 39.48 5.02 39.48 16.2 39.48 16.2 39.48 16.2 39.48 34.29 19.14 34.29 19.14 34.29 19.14 31.55 19.14 31.55 19.14 31.55 19.14 23.82 27.4 23.82 27.4 23.1 28.24 22.03 28.71 20.84 28.71 19.65 28.71 18.58 28.24 17.87 27.4 16.44 25.84 16.56 23.21 18.1 21.54 18.1 21.54 29.05 11.01 29.05 11.01 29.17 10.89 29.41 10.77 29.76 10.77 29.76 10.77 42.73 10.77 42.73 10.77 43.92 10.77 44.99 11.25 45.83 11.96 45.83 11.96 54.51 20.1 54.51 20.1 54.87 20.46 55.35 20.46 55.7 20.1 55.7 20.1 61.89 13.76 61.89 13.76 63.44 12.2 66.17 12.2 67.72 13.76 67.72 13.76 67.84 13.88 67.84 13.88 69.39 15.43 69.39 18.07 67.84 19.62ZM 66.17 15.67C 66.17 15.67 66.06 15.55 66.06 15.55 65.46 14.96 64.27 14.96 63.68 15.55 63.68 15.55 57.49 21.89 57.49 21.89 56.3 23.09 54.28 23.21 52.97 22.01 52.97 22.01 44.28 13.88 44.28 13.88 43.92 13.52 43.33 13.28 42.85 13.28 42.85 13.28 30.24 13.28 30.24 13.28 30.24 13.28 19.65 23.45 19.65 23.45 18.94 24.17 18.94 25.24 19.53 25.96 19.89 26.32 20.36 26.56 20.84 26.56 21.32 26.56 21.79 26.32 22.03 25.96 22.03 25.96 30.12 17.35 30.12 17.35 30.36 17.11 30.72 16.99 30.95 16.99 30.95 16.99 36.9 16.99 36.9 16.99 37.38 16.99 37.86 17.23 37.97 17.71 38.09 18.19 38.09 18.66 37.74 19.02 37.74 19.02 17.51 41.76 17.51 41.76 17.27 41.76 17.03 41.87 16.68 41.87 16.68 41.87 5.02 41.87 5.02 41.87 3.59 41.87 2.4 42.83 2.4 44.15 2.4 44.87 2.64 45.46 2.99 45.94 3.47 46.42 4.06 46.66 4.78 46.66 4.78 46.66 20.96 46.66 20.96 46.66 20.96 46.66 30 36.97 30 36.97 30.12 36.73 30.48 36.61 30.84 36.61 31.19 36.61 31.43 36.73 31.67 36.97 31.67 36.97 40.12 45.82 40.12 45.82 40.35 46.06 40.47 46.42 40.47 46.78 40.47 46.78 38.21 61.38 38.21 61.38 37.97 62.69 38.45 63.89 39.52 64.37 40.24 64.73 40.95 64.61 41.54 64.37 42.14 64.01 42.61 63.41 42.85 62.81 42.85 62.81 46.42 43.55 46.42 43.55 46.42 43.55 36.19 33.26 36.19 33.26 35.83 32.9 35.71 32.66 35.71 32.3 35.71 31.94 35.83 31.71 36.07 31.47 36.07 31.47 45.59 21.89 45.59 21.89 46.07 21.42 46.78 21.42 47.26 21.89 47.26 21.89 53.56 28.24 53.56 28.24 54.16 28.83 55.23 28.83 55.94 28.24 55.94 28.24 66.17 17.95 66.17 17.95 66.77 17.35 66.77 16.27 66.17 15.67ZM 54.75 14.36C 50.83 14.36 47.61 11.13 47.61 7.18 47.61 3.23 50.83-0 54.75-0 58.68-0 61.89 3.23 61.89 7.18 61.89 11.13 58.68 14.36 54.75 14.36ZM 54.75 2.39C 52.13 2.39 49.99 4.55 49.99 7.18 49.99 9.81 52.13 11.96 54.75 11.96 57.37 11.96 59.51 9.81 59.51 7.18 59.51 4.55 57.37 2.39 54.75 2.39Z" fill="rgb(231,77,117)"/></svg>