<?xml version="1.0" encoding="utf-8"?>
<svg xmlns="http://www.w3.org/2000/svg"
	xmlns:xlink="http://www.w3.org/1999/xlink"
	width="50px" height="51px" viewBox="0 0 50 51">
<path fillRule="evenodd" d="M 44.8 18.26C 44.8 18.26 44.8 11.85 44.8 9.14 43.03 10.9 37.69 16.19 34.93 18.92 37.65 22.31 39.28 26.6 39.28 31.27 39.28 42.14 30.47 50.99 19.64 50.99 8.81 50.99 0 42.14 0 31.27 0 20.4 8.81 11.55 19.64 11.55 23.88 11.55 27.8 12.92 31.01 15.22 33.74 12.58 39.23 7.26 41.1 5.45 38.24 5.45 31.28 5.45 31.28 5.45 31.28 5.45 31.28 0.01 31.28 0.01 31.28 0.01 49.09 0.01 49.09 0.01 49.09 0.01 50 0.01 50 0.01 50 0.01 50 18.26 50 18.26 50 18.26 44.8 18.26 44.8 18.26ZM 5.42 31.27C 5.42 39.14 11.8 45.55 19.64 45.55 27.48 45.55 33.86 39.14 33.86 31.27 33.86 23.4 27.48 16.99 19.64 16.99 11.8 16.99 5.42 23.4 5.42 31.27Z" fill="rgb(255,255,255)"/></svg>
