<?xml version="1.0" encoding="utf-8"?>
<svg xmlns="http://www.w3.org/2000/svg"
	xmlns:xlink="http://www.w3.org/1999/xlink"
	width="77px" height="58px" viewBox="0 0 77 58">
<path fillRule="evenodd" d="M 69.49 43.67C 74.51 37.18 77.02 30.19 77.02 22.7 77.02 16.33 74.98 10.97 70.9 6.62 66.83 2.27 62.27 0.1 57.21 0.1 53.06 0.1 49.59 1.39 46.8 3.98 44.01 6.56 42.61 9.66 42.61 13.25 42.61 16.55 43.76 19.34 46.06 21.63 48.37 23.92 51.06 25.06 54.16 25.06 55.51 25.06 57.02 24.78 58.68 24.22 60.34 23.65 61.66 23.37 62.64 23.37 63.62 23.37 64.45 23.9 65.13 24.95 65.89 25.92 66.26 27.72 66.26 30.34 66.26 34.77 64.83 38.85 61.96 42.6 59.1 46.35 54.34 49.94 47.7 53.39 47.7 53.39 47.7 58 47.7 58 57.21 54.93 64.47 50.15 69.49 43.67ZM 26.93 43.89C 31.99 37.41 34.51 30.23 34.51 22.36 34.51 15.99 32.52 10.67 28.52 6.4 24.52 2.12 20.03-0.01 15.05-0.01 10.82-0.01 7.26 1.34 4.35 4.03 1.45 6.73-0 9.92-0 13.59-0 16.81 1.15 19.53 3.45 21.74 5.75 23.95 8.45 25.06 11.54 25.06 13.2 25.06 14.86 24.76 16.52 24.16 18.18 23.56 19.42 23.26 20.25 23.26 21.16 23.26 22.03 23.78 22.86 24.83 23.69 25.88 24.1 27.46 24.1 29.56 24.1 34.2 22.9 38.25 20.48 41.7 18.07 45.15 13.05 49.04 5.43 53.39 5.43 53.39 5.43 57.66 5.43 57.66 14.71 54.97 21.88 50.37 26.93 43.89Z" fill="rgb(201,205,217)"/></svg>
