<?xml version="1.0" encoding="utf-8"?>
<svg xmlns="http://www.w3.org/2000/svg"
	xmlns:xlink="http://www.w3.org/1999/xlink"
	width="77px" height="58px" viewBox="0 0 77 58">
<path fillRule="evenodd" d="M 7.51 14.33C 2.49 20.82-0.02 27.81-0.02 35.3-0.02 41.67 2.02 47.03 6.1 51.38 10.17 55.73 14.73 57.9 19.79 57.9 23.94 57.9 27.41 56.61 30.2 54.02 32.99 51.44 34.39 48.34 34.39 44.75 34.39 41.45 33.24 38.66 30.94 36.37 28.63 34.08 25.94 32.94 22.84 32.94 21.49 32.94 19.98 33.22 18.32 33.78 16.66 34.35 15.34 34.63 14.36 34.63 13.38 34.63 12.55 34.1 11.87 33.05 11.11 32.08 10.74 30.28 10.74 27.66 10.74 23.23 12.17 19.15 15.04 15.4 17.9 11.65 22.66 8.06 29.3 4.61 29.3 4.61 29.3-0 29.3-0 19.79 3.07 12.53 7.85 7.51 14.33ZM 50.07 14.11C 45.01 20.59 42.49 27.77 42.49 35.64 42.49 42.01 44.48 47.33 48.48 51.6 52.48 55.88 56.97 58.01 61.95 58.01 66.18 58.01 69.74 56.66 72.65 53.96 75.55 51.27 77 48.08 77 44.41 77 41.19 75.85 38.47 73.55 36.26 71.25 34.05 68.55 32.94 65.46 32.94 63.8 32.94 62.14 33.24 60.48 33.84 58.82 34.44 57.58 34.74 56.75 34.74 55.84 34.74 54.97 34.22 54.14 33.17 53.31 32.12 52.9 30.54 52.9 28.44 52.9 23.8 54.1 19.75 56.52 16.3 58.93 12.85 63.95 8.96 71.57 4.61 71.57 4.61 71.57 0.34 71.57 0.34 62.29 3.03 55.12 7.63 50.07 14.11Z" fill="rgb(201,205,217)"/></svg>