<svg height="512pt" viewBox="0 0 512 512" width="512pt" xmlns="http://www.w3.org/2000/svg"><path d="m413.480469 0h-314.960938c-54.324219 0-98.519531 44.195312-98.519531 98.519531v314.960938c0 54.324219 44.195312 98.519531 98.519531 98.519531h314.960938c54.324219 0 98.519531-44.195312 98.519531-98.519531v-314.960938c0-54.324219-44.195312-98.519531-98.519531-98.519531zm-59.480469 138c0 54.039062-43.960938 98-98 98s-98-43.960938-98-98 43.960938-98 98-98 98 43.960938 98 98zm118 275.480469c0 32.269531-26.25 58.519531-58.519531 58.519531h-314.960938c-32.269531 0-58.519531-26.25-58.519531-58.519531v-314.960938c0-32.269531 26.25-58.519531 58.519531-58.519531h60.421875c-25.265625 25.023438-40.941406 59.714844-40.941406 98 0 76.09375 61.90625 138 138 138s138-61.90625 138-138c0-38.285156-15.675781-72.976562-40.941406-98h60.421875c32.269531 0 58.519531 26.25 58.519531 58.519531zm0 0"/><path d="m256 158c11.046875 0 20-8.953125 20-20v-64.332031c0-11.046875-8.953125-20-20-20s-20 8.953125-20 20v64.332031c0 11.046875 8.953125 20 20 20zm0 0"/></svg>