<?xml version="1.0" encoding="utf-8"?>
<svg xmlns="http://www.w3.org/2000/svg"
	xmlns:xlink="http://www.w3.org/1999/xlink"
	width="39px" height="39px" viewBox="0 0 39 39">
<path fillRule="evenodd" d="M 38.61 36.86C 38.61 36.86 28.55 26.96 28.55 26.96 31.18 24.1 32.8 20.31 32.8 16.14 32.8 7.23 25.46 0 16.4 0 7.34 0 0 7.23 0 16.14 0 25.06 7.34 32.28 16.4 32.28 20.32 32.28 23.91 30.93 26.72 28.68 26.72 28.68 36.83 38.62 36.83 38.62 37.32 39.1 38.12 39.1 38.61 38.62 39.11 38.13 39.11 37.35 38.61 36.86ZM 16.4 29.8C 8.74 29.8 2.52 23.68 2.52 16.14 2.52 8.6 8.74 2.48 16.4 2.48 24.07 2.48 30.28 8.6 30.28 16.14 30.28 23.68 24.07 29.8 16.4 29.8Z" fill="rgb(0,0,0)"/></svg>