<?xml version="1.0" encoding="utf-8"?>
<svg xmlns="http://www.w3.org/2000/svg"
	xmlns:xlink="http://www.w3.org/1999/xlink"
	width="41px" height="57px" viewBox="0 0 41 57">
<path fillRule="evenodd" d="M 23.21 40.74C 23.21 41.84 23.21 42.9 23.21 43.48 24.8 43.48 34.99 43.48 34.99 43.48 34.99 43.48 34.99 49.12 34.99 49.12 34.99 49.12 24.8 49.12 23.21 49.12 23.21 50.58 23.21 57.01 23.21 57.01 23.21 57.01 17.43 57.01 17.43 57.01 17.43 57.01 17.43 50.58 17.43 49.12 15.84 49.12 5.6 49.12 5.6 49.12 5.6 49.12 5.6 43.48 5.6 43.48 5.6 43.48 15.84 43.48 17.43 43.48 17.43 42.89 17.43 41.8 17.43 40.68 7.58 39.2-0 30.71-0 20.47-0 9.18 9.2-0.01 20.5-0.01 31.8-0.01 41 9.18 41 20.47 41 30.84 33.23 39.41 23.21 40.74ZM 20.5 5.64C 12.31 5.64 5.65 12.29 5.65 20.47 5.65 28.64 12.31 35.29 20.5 35.29 28.69 35.29 35.35 28.64 35.35 20.47 35.35 12.29 28.69 5.64 20.5 5.64Z" fill="rgb(0,0,0)"/></svg>